<svg xmlns="http://www.w3.org/2000/svg" viewBox="0 0 1600 900">
<defs>
  <linearGradient id="sea" x1="0" y1="0" x2="1" y2="1"><stop stop-color="#8fd0e8"/><stop offset="1" stop-color="#4fa9d9"/></linearGradient>
  <filter id="shadow"><feDropShadow dx="0" dy="8" stdDeviation="10" flood-opacity=".18"/></filter>
</defs>
<rect width="1600" height="900" fill="url(#sea)"/>
<path d="M120 115 L260 80 360 130 470 105 550 165 650 150 720 205 835 190 910 245 1015 230 1105 290 1215 280 1295 355 1390 390 1430 485 1360 545 1265 530 1205 590 1115 565 1050 620 955 590 880 650 775 625 690 680 585 645 515 700 420 655 345 610 260 620 205 550 145 520 110 430 150 350 95 275 Z" fill="#e9ddad" opacity=".97" filter="url(#shadow)"/>
<!-- Italy boot and Sicily -->
<path d="M905 430 C955 455 990 500 1015 555 C1035 600 1070 630 1118 650 L1098 690 C1048 674 1005 642 980 600 C955 555 925 530 890 515 Z" fill="#d9c58b"/>
<path d="M1080 728 C1120 710 1175 714 1208 742 C1175 765 1110 772 1070 750 Z" fill="#d9c58b"/>
<circle cx="560" cy="350" r="18" fill="#123b63" stroke="white" stroke-width="7"/>
<circle cx="1138" cy="744" r="18" fill="#c97a56" stroke="white" stroke-width="7"/>
<path d="M560 350 Q 820 360 1138 744" fill="none" stroke="#123b63" stroke-width="8" stroke-dasharray="16 18" stroke-linecap="round"/>
<g transform="translate(800 445) rotate(35)" fill="white" filter="url(#shadow)">
  <path d="M0 -10 L85 0 L125 -35 L142 -31 L116 4 L145 16 L139 28 L102 17 L68 58 L50 55 L62 15 L0 5 Z"/>
</g>
<g font-family="Arial, Helvetica, sans-serif" font-weight="700" fill="#123b63">
<text x="505" y="325" font-size="34">PARIS</text>
<text x="1180" y="800" font-size="34" text-anchor="end">PALERME</text>
</g>
<rect x="55" y="55" rx="24" width="260" height="78" fill="#123b63" opacity=".95"/>
<text x="185" y="107" text-anchor="middle" fill="white" font-family="Arial, Helvetica, sans-serif" font-size="36" font-weight="700">DÉPART</text>
<text x="800" y="845" text-anchor="middle" fill="#123b63" font-family="Arial, Helvetica, sans-serif" font-size="28">Paris • Palerme • Sicile 2026</text>
</svg>